<mxfile host="app.diagrams.net" modified="2021-06-23T02:58:36.111Z" agent="5.0 (Windows NT 6.1; Win64; x64) AppleWebKit/537.36 (KHTML, like Gecko) Chrome/91.0.4472.114 Safari/537.36" etag="9dRoNrKh5XxjzqM3lo14" version="14.8.0" type="github">
  <diagram name="Page-1" id="929967ad-93f9-6ef4-fab6-5d389245f69c">
    <mxGraphModel dx="1422" dy="794" grid="1" gridSize="10" guides="1" tooltips="1" connect="1" arrows="1" fold="1" page="1" pageScale="1.5" pageWidth="1169" pageHeight="826" background="none" math="0" shadow="0">
      <root>
        <mxCell id="0" style=";html=1;" />
        <mxCell id="1" style=";html=1;" parent="0" />
        <mxCell id="WE8cZbKPyUi7jY6YD-am-28" value="" style="edgeStyle=none;rounded=0;orthogonalLoop=1;jettySize=auto;html=1;entryX=0.5;entryY=0;entryDx=0;entryDy=0;exitX=0.5;exitY=0.5;exitDx=0;exitDy=0;exitPerimeter=0;" edge="1" parent="1" source="WE8cZbKPyUi7jY6YD-am-18" target="WE8cZbKPyUi7jY6YD-am-29">
          <mxGeometry relative="1" as="geometry">
            <mxPoint x="520" y="450" as="targetPoint" />
          </mxGeometry>
        </mxCell>
        <mxCell id="WE8cZbKPyUi7jY6YD-am-18" value="Actor" style="shape=umlActor;verticalLabelPosition=bottom;verticalAlign=top;html=1;" vertex="1" parent="1">
          <mxGeometry x="480" y="160" width="80" height="160" as="geometry" />
        </mxCell>
        <mxCell id="WE8cZbKPyUi7jY6YD-am-23" value="Обычный пользователь" style="text;html=1;strokeColor=none;fillColor=none;align=center;verticalAlign=middle;whiteSpace=wrap;rounded=0;" vertex="1" parent="1">
          <mxGeometry x="460" y="110" width="120" height="50" as="geometry" />
        </mxCell>
        <mxCell id="WE8cZbKPyUi7jY6YD-am-40" style="edgeStyle=none;rounded=0;orthogonalLoop=1;jettySize=auto;html=1;entryX=1;entryY=0;entryDx=0;entryDy=0;exitX=0.5;exitY=0.5;exitDx=0;exitDy=0;exitPerimeter=0;" edge="1" parent="1" source="WE8cZbKPyUi7jY6YD-am-24" target="WE8cZbKPyUi7jY6YD-am-31">
          <mxGeometry relative="1" as="geometry" />
        </mxCell>
        <mxCell id="WE8cZbKPyUi7jY6YD-am-24" value="Actor" style="shape=umlActor;verticalLabelPosition=bottom;verticalAlign=top;html=1;" vertex="1" parent="1">
          <mxGeometry x="980" y="330" width="80" height="160" as="geometry" />
        </mxCell>
        <mxCell id="WE8cZbKPyUi7jY6YD-am-25" value="Зарегистрированный пользователь" style="text;html=1;strokeColor=none;fillColor=none;align=center;verticalAlign=middle;whiteSpace=wrap;rounded=0;" vertex="1" parent="1">
          <mxGeometry x="960" y="280" width="120" height="50" as="geometry" />
        </mxCell>
        <mxCell id="WE8cZbKPyUi7jY6YD-am-29" value="Просмотреть рейсы" style="ellipse;whiteSpace=wrap;html=1;" vertex="1" parent="1">
          <mxGeometry x="300" y="330" width="140" height="70" as="geometry" />
        </mxCell>
        <mxCell id="WE8cZbKPyUi7jY6YD-am-30" value="" style="edgeStyle=none;rounded=0;orthogonalLoop=1;jettySize=auto;html=1;entryX=0;entryY=0.5;entryDx=0;entryDy=0;exitX=0.5;exitY=0.5;exitDx=0;exitDy=0;exitPerimeter=0;" edge="1" parent="1" target="WE8cZbKPyUi7jY6YD-am-38" source="WE8cZbKPyUi7jY6YD-am-18">
          <mxGeometry relative="1" as="geometry">
            <mxPoint x="700" y="240" as="sourcePoint" />
            <mxPoint x="700" y="450" as="targetPoint" />
          </mxGeometry>
        </mxCell>
        <mxCell id="WE8cZbKPyUi7jY6YD-am-41" style="edgeStyle=none;rounded=0;orthogonalLoop=1;jettySize=auto;html=1;entryX=0.5;entryY=0;entryDx=0;entryDy=0;" edge="1" parent="1" source="WE8cZbKPyUi7jY6YD-am-31" target="WE8cZbKPyUi7jY6YD-am-34">
          <mxGeometry relative="1" as="geometry" />
        </mxCell>
        <mxCell id="WE8cZbKPyUi7jY6YD-am-42" style="edgeStyle=none;rounded=0;orthogonalLoop=1;jettySize=auto;html=1;entryX=0.5;entryY=0;entryDx=0;entryDy=0;" edge="1" parent="1" source="WE8cZbKPyUi7jY6YD-am-31" target="WE8cZbKPyUi7jY6YD-am-36">
          <mxGeometry relative="1" as="geometry" />
        </mxCell>
        <mxCell id="WE8cZbKPyUi7jY6YD-am-31" value="Авторизоваться" style="ellipse;whiteSpace=wrap;html=1;" vertex="1" parent="1">
          <mxGeometry x="770" y="440" width="140" height="70" as="geometry" />
        </mxCell>
        <mxCell id="WE8cZbKPyUi7jY6YD-am-34" value="Создать рейс" style="ellipse;whiteSpace=wrap;html=1;" vertex="1" parent="1">
          <mxGeometry x="680" y="530" width="140" height="70" as="geometry" />
        </mxCell>
        <mxCell id="WE8cZbKPyUi7jY6YD-am-36" value="Подтвердить рейс" style="ellipse;whiteSpace=wrap;html=1;" vertex="1" parent="1">
          <mxGeometry x="860" y="530" width="140" height="70" as="geometry" />
        </mxCell>
        <mxCell id="WE8cZbKPyUi7jY6YD-am-39" style="edgeStyle=none;rounded=0;orthogonalLoop=1;jettySize=auto;html=1;exitX=1;exitY=0.5;exitDx=0;exitDy=0;entryX=0;entryY=0.3333333333333333;entryDx=0;entryDy=0;entryPerimeter=0;" edge="1" parent="1" source="WE8cZbKPyUi7jY6YD-am-38" target="WE8cZbKPyUi7jY6YD-am-24">
          <mxGeometry relative="1" as="geometry" />
        </mxCell>
        <mxCell id="WE8cZbKPyUi7jY6YD-am-38" value="Зарегистрироваться" style="ellipse;whiteSpace=wrap;html=1;" vertex="1" parent="1">
          <mxGeometry x="700" y="170" width="140" height="70" as="geometry" />
        </mxCell>
      </root>
    </mxGraphModel>
  </diagram>
</mxfile>
